<svg width="252" height="64" viewBox="0 0 252 64" fill="none" xmlns="http://www.w3.org/2000/svg">
<path d="M0 48.5994V0H4.31615V48.5994H0ZM5.75486 48.5994V0H7.19358V48.5994H5.75486ZM8.63229 48.5994V0H10.071V48.5994H8.63229ZM14.3872 48.5994V0H15.8259V48.5994H14.3872ZM17.2646 48.5994V0H21.5807V48.5994H17.2646ZM13.2841 60.7171H9.68735L8.58434 64H7.33745L11.4138 52.6065H11.5577L15.682 64H14.3872L13.2841 60.7171ZM12.9484 59.7516L11.5097 55.5031L10.0231 59.7516H12.9484Z" fill="#010101"/>
<path d="M23.0419 48.5994V0H24.4806V48.5994H23.0419ZM25.9194 48.5994V0H30.2355V48.5994H25.9194ZM31.6742 48.5994V0H33.1129V48.5994H31.6742ZM34.5517 48.5994V0H35.9904V48.5994H34.5517ZM40.3065 48.5994V0H44.6227V48.5994H40.3065ZM31.2906 52.7996H32.7293V52.9444C32.6653 53.0088 32.6174 53.0893 32.5854 53.1858C32.5854 53.2502 32.5854 53.395 32.5854 53.6203V62.9379H37.9087V64H31.2906V52.7996Z" fill="#010101"/>
<path d="M46.0839 48.5994V0H47.5226V48.5994H46.0839ZM48.9613 48.5994V0H53.2774V48.5994H48.9613ZM54.7161 48.5994V0H59.0323V48.5994H54.7161ZM60.471 48.5994V0H61.9097V48.5994H60.471ZM66.2259 48.5994V0H67.6646V48.5994H66.2259ZM54.1886 52.7996H57.7374C58.9204 52.7996 59.7996 53.1054 60.3751 53.7169C60.9825 54.2962 61.2863 55.0525 61.2863 55.9859C61.2863 56.8871 60.9985 57.6274 60.423 58.2067C59.8476 58.786 58.9843 59.0757 57.8334 59.0757H55.4835V64H54.1886V52.7996ZM57.6895 57.9653C58.4888 57.9653 59.0643 57.7883 59.416 57.4342C59.7996 57.1124 59.9914 56.6457 59.9914 56.0342C59.9914 55.4227 59.7996 54.9399 59.416 54.5859C59.0323 54.1996 58.4728 54.0065 57.7374 54.0065H55.4835V57.9653H57.6895Z" fill="#010101"/>
<path d="M69.1258 48.5994V0H73.4419V48.5994H69.1258ZM74.8806 48.5994V0H76.3194V48.5994H74.8806ZM77.7581 48.5994V0H79.1968V48.5994H77.7581ZM83.5129 48.5994V0H87.8291V48.5994H83.5129ZM89.2678 48.5994V0H90.7065V48.5994H89.2678ZM77.0867 52.7996H78.5254V52.9444C78.4614 53.0088 78.4135 53.0893 78.3815 53.1858C78.3815 53.2502 78.3815 53.395 78.3815 53.6203V57.5791H82.6977V52.7996H84.1843V52.9444C84.1204 53.0088 84.0724 53.0893 84.0405 53.1858C84.0405 53.2502 84.0405 53.395 84.0405 53.6203V64H82.6977V58.6895H78.3815V64H77.0867V52.7996Z" fill="#010101"/>
<path d="M92.1677 48.5994V0H96.4838V48.5994H92.1677ZM97.9226 48.5994V0H99.3613V48.5994H97.9226ZM100.8 48.5994V0H102.239V48.5994H100.8ZM106.555 48.5994V0H107.994V48.5994H106.555ZM109.432 48.5994V0H113.748V48.5994H109.432ZM105.452 60.7171H101.855L100.752 64H99.5052L103.582 52.6065H103.725L107.85 64H106.555L105.452 60.7171ZM105.116 59.7516L103.677 55.5031L102.191 59.7516H105.116Z" fill="#010101"/>
<path d="M115.21 48.5994V0H116.648V48.5994H115.21ZM120.964 48.5994V0H125.281V48.5994H120.964ZM126.719 48.5994V0H128.158V48.5994H126.719ZM129.597 48.5994V0H133.913V48.5994H129.597ZM135.352 48.5994V0H136.79V48.5994H135.352Z" fill="#010101"/>
<path d="M138.252 48.5994V0H139.69V48.5994H138.252ZM141.129 48.5994V0H145.445V48.5994H141.129ZM146.884 48.5994V0H151.2V48.5994H146.884ZM152.639 48.5994V0H154.077V48.5994H152.639ZM158.394 48.5994V0H159.832V48.5994H158.394ZM146.356 52.7996H149.905C151.088 52.7996 151.967 53.1054 152.543 53.7169C153.15 54.2962 153.454 55.0525 153.454 55.9859C153.454 56.8871 153.166 57.6274 152.591 58.2067C152.015 58.786 151.152 59.0757 150.001 59.0757H147.651V64H146.356V52.7996ZM149.857 57.9653C150.656 57.9653 151.232 57.7883 151.584 57.4342C151.967 57.1124 152.159 56.6457 152.159 56.0342C152.159 55.4227 151.967 54.9399 151.584 54.5859C151.2 54.1996 150.64 54.0065 149.905 54.0065H147.651V57.9653H149.857Z" fill="#010101"/>
<path d="M161.293 48.5994V0H165.61V48.5994H161.293ZM167.048 48.5994V0H168.487V48.5994H167.048ZM169.926 48.5994V0H171.364V48.5994H169.926ZM172.803 48.5994V0H177.119V48.5994H172.803ZM181.436 48.5994V0H182.874V48.5994H181.436ZM169.35 52.7996H172.611C173.89 52.7996 174.817 53.0893 175.393 53.6686C176 54.2157 176.304 55.0043 176.304 56.0342C176.304 56.6779 176.096 57.2894 175.681 57.8687C175.265 58.4481 174.721 58.8343 174.05 59.0274L176.64 64H175.249L172.755 59.0757H170.597V64H169.35V52.7996ZM172.755 57.9653C173.523 57.9653 174.098 57.7883 174.482 57.4342C174.833 57.1124 175.009 56.6457 175.009 56.0342C175.009 55.4227 174.833 54.9238 174.482 54.5376C174.098 54.1836 173.523 54.0065 172.755 54.0065H170.597V57.9653H172.755Z" fill="#010101"/>
<path d="M184.335 48.5994V0H185.774V48.5994H184.335ZM187.213 48.5994V0H191.529V48.5994H187.213ZM192.968 48.5994V0H194.406V48.5994H192.968ZM198.723 48.5994V0H203.039V48.5994H198.723ZM204.477 48.5994V0H205.916V48.5994H204.477ZM192.824 62.9379H195.03V53.8617H192.968V52.7996H198.483V53.8617H196.277V62.9379H198.579V64H192.824V62.9379Z" fill="#010101"/>
<path d="M207.377 48.5994V0H211.693V48.5994H207.377ZM213.132 48.5994V0H217.448V48.5994H213.132ZM218.887 48.5994V0H220.326V48.5994H218.887ZM221.764 48.5994V0H223.203V48.5994H221.764ZM227.519 48.5994V0H228.958V48.5994H227.519ZM215.146 52.7996H216.153L218.887 58.3032L221.669 52.7996H222.628V64H221.429V55.5514L219.031 60.0895H218.551L216.297 55.5997V64H215.146V52.7996Z" fill="#010101"/>
<path d="M230.419 48.5994V0H234.735V48.5994H230.419ZM236.174 48.5994V0H237.613V48.5994H236.174ZM239.052 48.5994V0H243.368V48.5994H239.052ZM247.684 48.5994V0H249.123V48.5994H247.684ZM250.561 48.5994V0H252V48.5994H250.561ZM238.524 52.7996H245.334V53.91H239.675V57.5791H244.375V58.7377H239.675V62.8896H245.286V64H238.524V52.7996Z" fill="#010101"/>
</svg>
